<svg id="visual" viewBox="0 0 900 600" width="900" height="600" xmlns="http://www.w3.org/2000/svg" xmlns:xlink="http://www.w3.org/1999/xlink" version="1.1"><path d="M0 488L129 504L257 477L386 462L514 471L643 504L771 449L900 482L900 601L771 601L643 601L514 601L386 601L257 601L129 601L0 601Z" fill="#1f2937"></path><path d="M0 523L129 515L257 526L386 511L514 501L643 517L771 487L900 510L900 601L771 601L643 601L514 601L386 601L257 601L129 601L0 601Z" fill="#242f3e"></path><path d="M0 515L129 543L257 526L386 508L514 514L643 530L771 519L900 530L900 601L771 601L643 601L514 601L386 601L257 601L129 601L0 601Z" fill="#293546"></path><path d="M0 546L129 532L257 559L386 530L514 554L643 535L771 556L900 564L900 601L771 601L643 601L514 601L386 601L257 601L129 601L0 601Z" fill="#2e3b4d"></path><path d="M0 578L129 576L257 565L386 558L514 555L643 569L771 557L900 555L900 601L771 601L643 601L514 601L386 601L257 601L129 601L0 601Z" fill="#334155"></path></svg>