<svg id="visual" viewBox="0 0 960 540" width="960" height="540" xmlns="http://www.w3.org/2000/svg" xmlns:xlink="http://www.w3.org/1999/xlink" version="1.1"><path d="M0 362L22.8 366.8C45.7 371.7 91.3 381.3 137 383.8C182.7 386.3 228.3 381.7 274 379.5C319.7 377.3 365.3 377.7 411.2 380.5C457 383.3 503 388.7 548.8 389.3C594.7 390 640.3 386 686 383.7C731.7 381.3 777.3 380.7 823 388.8C868.7 397 914.3 414 937.2 422.5L960 431L960 541L937.2 541C914.3 541 868.7 541 823 541C777.3 541 731.7 541 686 541C640.3 541 594.7 541 548.8 541C503 541 457 541 411.2 541C365.3 541 319.7 541 274 541C228.3 541 182.7 541 137 541C91.3 541 45.7 541 22.8 541L0 541Z" fill="#94a3b8"></path><path d="M0 423L22.8 426.2C45.7 429.3 91.3 435.7 137 437.5C182.7 439.3 228.3 436.7 274 428.5C319.7 420.3 365.3 406.7 411.2 408.2C457 409.7 503 426.3 548.8 426.2C594.7 426 640.3 409 686 408.8C731.7 408.7 777.3 425.3 823 428.7C868.7 432 914.3 422 937.2 417L960 412L960 541L937.2 541C914.3 541 868.7 541 823 541C777.3 541 731.7 541 686 541C640.3 541 594.7 541 548.8 541C503 541 457 541 411.2 541C365.3 541 319.7 541 274 541C228.3 541 182.7 541 137 541C91.3 541 45.7 541 22.8 541L0 541Z" fill="#788192"></path><path d="M0 458L22.8 454.2C45.7 450.3 91.3 442.7 137 437.3C182.7 432 228.3 429 274 430.8C319.7 432.7 365.3 439.3 411.2 439.7C457 440 503 434 548.8 432.3C594.7 430.7 640.3 433.3 686 437.7C731.7 442 777.3 448 823 447.2C868.7 446.3 914.3 438.7 937.2 434.8L960 431L960 541L937.2 541C914.3 541 868.7 541 823 541C777.3 541 731.7 541 686 541C640.3 541 594.7 541 548.8 541C503 541 457 541 411.2 541C365.3 541 319.7 541 274 541C228.3 541 182.7 541 137 541C91.3 541 45.7 541 22.8 541L0 541Z" fill="#5d616d"></path><path d="M0 477L22.8 476.3C45.7 475.7 91.3 474.3 137 474.8C182.7 475.3 228.3 477.7 274 476.7C319.7 475.7 365.3 471.3 411.2 469.5C457 467.7 503 468.3 548.8 471.2C594.7 474 640.3 479 686 477.2C731.7 475.3 777.3 466.7 823 467C868.7 467.3 914.3 476.7 937.2 481.3L960 486L960 541L937.2 541C914.3 541 868.7 541 823 541C777.3 541 731.7 541 686 541C640.3 541 594.7 541 548.8 541C503 541 457 541 411.2 541C365.3 541 319.7 541 274 541C228.3 541 182.7 541 137 541C91.3 541 45.7 541 22.8 541L0 541Z" fill="#42434a"></path><path d="M0 510L22.8 511.5C45.7 513 91.3 516 137 517.7C182.7 519.3 228.3 519.7 274 514.3C319.7 509 365.3 498 411.2 493C457 488 503 489 548.8 494.5C594.7 500 640.3 510 686 513.5C731.7 517 777.3 514 823 509.7C868.7 505.3 914.3 499.7 937.2 496.8L960 494L960 541L937.2 541C914.3 541 868.7 541 823 541C777.3 541 731.7 541 686 541C640.3 541 594.7 541 548.8 541C503 541 457 541 411.2 541C365.3 541 319.7 541 274 541C228.3 541 182.7 541 137 541C91.3 541 45.7 541 22.8 541L0 541Z" fill="#27272a"></path></svg>